<?xml version="1.0"?>
<svg xmlns="http://www.w3.org/2000/svg" xmlns:xlink="http://www.w3.org/1999/xlink" xmlns:svgjs="http://svgjs.com/svgjs" version="1.1" width="512" height="512" x="0" y="0" viewBox="0 0 512 512" style="enable-background:new 0 0 512 512" xml:space="preserve" class=""><g transform="matrix(0.7999999999999999,0,0,0.7999999999999999,51.20000000000002,51.20000000000002)"><path xmlns="http://www.w3.org/2000/svg" d="m488 128h-272l-48-48h272z" fill="#815038" data-original="#815038" style=""/><path xmlns="http://www.w3.org/2000/svg" d="m488 128-64 224h-272l64-224z" fill="#af7d4d" data-original="#af7d4d" style=""/><path xmlns="http://www.w3.org/2000/svg" d="m424 352-48-48 64-224 48 48z" fill="#d3393b" data-original="#d3393b" style=""/><path xmlns="http://www.w3.org/2000/svg" d="m152 352-48-48 64-224 48 48z" fill="#815038" data-original="#815038" style=""/><circle xmlns="http://www.w3.org/2000/svg" cx="208" cy="272" fill="#f0c033" r="152" data-original="#f0c033" style=""/><circle xmlns="http://www.w3.org/2000/svg" cx="208" cy="272" fill="#f0de9c" r="128" data-original="#f0de9c" style="" class=""/><path xmlns="http://www.w3.org/2000/svg" d="m144 248a24 24 0 0 1 24-24v-32a56.06353 56.06353 0 0 0 -56 56z" fill="#349b66" data-original="#349b66" style=""/><path xmlns="http://www.w3.org/2000/svg" d="m256 240a24 24 0 0 1 24 24h32a56.06353 56.06353 0 0 0 -56-56z" fill="#349b66" data-original="#349b66" style=""/><path xmlns="http://www.w3.org/2000/svg" d="m200 368a24 24 0 0 1 24-24v-32a56.06353 56.06353 0 0 0 -56 56z" fill="#349b66" data-original="#349b66" style=""/><g xmlns="http://www.w3.org/2000/svg" fill="#e64042"><circle cx="272" cy="312" r="24" fill="#e64042" data-original="#e64042" style=""/><circle cx="216" cy="192" r="16" fill="#e64042" data-original="#e64042" style=""/><circle cx="208" cy="264" r="16" fill="#e64042" data-original="#e64042" style=""/><circle cx="136" cy="296" r="16" fill="#e64042" data-original="#e64042" style=""/><path d="m24 352h272v80h-272z" fill="#e64042" data-original="#e64042" style=""/></g><path xmlns="http://www.w3.org/2000/svg" d="m296 352h128v80h-128z" fill="#d3393b" data-original="#d3393b" style=""/></g></svg>
